<svg width="12851" height="6879" viewBox="0 0 12851 6879" fill="none" xmlns="http://www.w3.org/2000/svg">
<path d="M12094.5 0.000976562H755.906V1889.76H12094.5V0.000976562Z" fill="#F9F9F9"/>
<path d="M755.906 613.021H4575.75H755.906Z" fill="#00FFFF"/>
<path d="M755.906 613.021H4575.75" stroke="#4DE5FF" stroke-width="30.2362"/>
<path d="M787.059 537.431V688.612V537.431Z" fill="#666666"/>
<path d="M787.059 537.431V688.612" stroke="#323232" stroke-width="60.4724"/>
<path d="M4544.83 537.431V688.612V537.431Z" fill="#666666"/>
<path d="M4544.83 537.431V688.612" stroke="#323232" stroke-width="60.4724"/>
<path d="M4513.67 842.326H8333.51H4513.67Z" fill="#00FFFF"/>
<path d="M4513.67 842.326H8333.51" stroke="#4DE5FF" stroke-width="30.2362"/>
<path d="M4544.82 766.735V917.917V766.735Z" fill="#666666"/>
<path d="M4544.82 766.735V917.917" stroke="#323232" stroke-width="60.4724"/>
<path d="M8302.59 766.735V917.917V766.735Z" fill="#666666"/>
<path d="M8302.59 766.735V917.917" stroke="#323232" stroke-width="60.4724"/>
<path d="M8271.45 1056.01H12091.3H8271.45Z" fill="#00FFFF"/>
<path d="M8271.45 1056.01H12091.3" stroke="#4DE5FF" stroke-width="30.2362"/>
<path d="M8302.6 980.417V1131.6V980.417Z" fill="#666666"/>
<path d="M8302.6 980.417V1131.6" stroke="#323232" stroke-width="60.4724"/>
<path d="M12060.4 980.417V1131.6V980.417Z" fill="#666666"/>
<path d="M12060.4 980.417V1131.6" stroke="#323232" stroke-width="60.4724"/>
<path d="M377.953 1889.77V0.000976562V1889.77Z" fill="#E6E6E6"/>
<path d="M377.953 1889.77V0.000976562" stroke="#B0B0B0" stroke-width="755.906"/>
<path d="M12472.4 1889.76V0V1889.76Z" fill="#E6E6E6"/>
<path d="M12472.4 1889.76V0" stroke="#B0B0B0" stroke-width="755.906"/>
<path d="M12094.5 2494.42H755.906V4384.18H12094.5V2494.42Z" fill="#F9F9F9"/>
<path d="M8274.65 3107.44H12094.5H8274.65Z" fill="#00FFFF"/>
<path d="M8274.65 3107.44H12094.5" stroke="#4DE5FF" stroke-width="30.2362"/>
<path d="M8305.8 3031.85V3183.03V3031.85Z" fill="#666666"/>
<path d="M8305.8 3031.85V3183.03" stroke="#323232" stroke-width="60.4724"/>
<path d="M12063.6 3031.85V3183.03V3031.85Z" fill="#666666"/>
<path d="M12063.6 3031.85V3183.03" stroke="#323232" stroke-width="60.4724"/>
<path d="M8271.45 3336.74H12091.3H8271.45Z" fill="#00FFFF"/>
<path d="M8271.45 3336.74H12091.3" stroke="#4DE5FF" stroke-width="30.2362"/>
<path d="M8302.6 3261.15V3412.33V3261.15Z" fill="#666666"/>
<path d="M8302.6 3261.15V3412.33" stroke="#323232" stroke-width="60.4724"/>
<path d="M12060.4 3261.15V3412.33V3261.15Z" fill="#666666"/>
<path d="M12060.4 3261.15V3412.33" stroke="#323232" stroke-width="60.4724"/>
<path d="M8271.45 3550.42H12091.3H8271.45Z" fill="#00FFFF"/>
<path d="M8271.45 3550.42H12091.3" stroke="#4DE5FF" stroke-width="30.2362"/>
<path d="M8302.6 3474.83V3626.01V3474.83Z" fill="#666666"/>
<path d="M8302.6 3474.83V3626.01" stroke="#323232" stroke-width="60.4724"/>
<path d="M12060.4 3474.83V3626.01V3474.83Z" fill="#666666"/>
<path d="M12060.4 3474.83V3626.01" stroke="#323232" stroke-width="60.4724"/>
<path d="M377.953 4384.18V2494.42V4384.18Z" fill="#E6E6E6"/>
<path d="M377.953 4384.18V2494.42" stroke="#B0B0B0" stroke-width="755.906"/>
<path d="M12472.4 4384.18V2494.41V4384.18Z" fill="#E6E6E6"/>
<path d="M12472.4 4384.18V2494.41" stroke="#B0B0B0" stroke-width="755.906"/>
<path d="M12094.5 4988.83H755.906V6878.59H12094.5V4988.83Z" fill="#F9F9F9"/>
<path d="M759.109 5601.85H4578.95H759.109Z" fill="#00FFFF"/>
<path d="M759.109 5601.85H4578.95" stroke="#4DE5FF" stroke-width="30.2362"/>
<path d="M790.262 5526.26V5677.44V5526.26Z" fill="#666666"/>
<path d="M790.262 5526.26V5677.44" stroke="#323232" stroke-width="60.4724"/>
<path d="M4548.03 5526.26V5677.44V5526.26Z" fill="#666666"/>
<path d="M4548.03 5526.26V5677.44" stroke="#323232" stroke-width="60.4724"/>
<path d="M755.906 5831.16H4575.75H755.906Z" fill="#00FFFF"/>
<path d="M755.906 5831.16H4575.75" stroke="#4DE5FF" stroke-width="30.2362"/>
<path d="M787.059 5755.57V5906.75V5755.57Z" fill="#666666"/>
<path d="M787.059 5755.57V5906.75" stroke="#323232" stroke-width="60.4724"/>
<path d="M4544.83 5755.57V5906.75V5755.57Z" fill="#666666"/>
<path d="M4544.83 5755.57V5906.75" stroke="#323232" stroke-width="60.4724"/>
<path d="M755.906 6044.84H4575.75H755.906Z" fill="#00FFFF"/>
<path d="M755.906 6044.84H4575.75" stroke="#4DE5FF" stroke-width="30.2362"/>
<path d="M787.059 5969.25V6120.43V5969.25Z" fill="#666666"/>
<path d="M787.059 5969.25V6120.43" stroke="#323232" stroke-width="60.4724"/>
<path d="M4544.83 5969.25V6120.43V5969.25Z" fill="#666666"/>
<path d="M4544.83 5969.25V6120.43" stroke="#323232" stroke-width="60.4724"/>
<path d="M377.953 6878.6V4988.83V6878.6Z" fill="#E6E6E6"/>
<path d="M377.953 6878.6V4988.83" stroke="#B0B0B0" stroke-width="755.906"/>
<path d="M12472.4 6878.6V4988.83V6878.6Z" fill="#E6E6E6"/>
<path d="M12472.4 6878.6V4988.83" stroke="#B0B0B0" stroke-width="755.906"/>
</svg>
