<svg width="644" height="11109" viewBox="0 0 644 11109" fill="none" xmlns="http://www.w3.org/2000/svg">
<path d="M0 66.1412H85.0394V65.5889" fill="#D5FFFF"/>
<path d="M0 66.1412H85.0394V65.5889" stroke="#333333" stroke-width="132.283"/>
<path d="M0 11041.9H85.0394V11041.3" fill="#D5FFFF"/>
<path d="M0 11041.9H85.0394V11041.3" stroke="#333333" stroke-width="132.283"/>
<path d="M75.4688 11041.9V66.1396V11041.9Z" fill="#D5FFFF"/>
<path d="M75.4688 11041.9V66.1396" stroke="#48FFFF" stroke-width="30.2362"/>
<path d="M242.117 66.1412H327.157V65.5889" fill="#D5FFFF"/>
<path d="M242.117 66.1412H327.157V65.5889" stroke="#333333" stroke-width="132.283"/>
<path d="M242.117 11041.9H327.157V11041.3" fill="#D5FFFF"/>
<path d="M242.117 11041.9H327.157V11041.3" stroke="#333333" stroke-width="132.283"/>
<path d="M317.586 11041.9V66.1396V11041.9Z" fill="#D5FFFF"/>
<path d="M317.586 11041.9V66.1396" stroke="#48FFFF" stroke-width="30.2362"/>
<path d="M492.117 66.1412H577.157V65.5889" fill="#D5FFFF"/>
<path d="M492.117 66.1412H577.157V65.5889" stroke="#333333" stroke-width="132.283"/>
<path d="M492.117 11041.9H577.157V11041.3" fill="#D5FFFF"/>
<path d="M492.117 11041.9H577.157V11041.3" stroke="#333333" stroke-width="132.283"/>
<path d="M567.586 11041.9V66.1396V11041.9Z" fill="#D5FFFF"/>
<path d="M567.586 11041.9V66.1396" stroke="#48FFFF" stroke-width="30.2362"/>
</svg>
