<svg width="11156" height="12098" viewBox="0 0 11156 12098" fill="none" xmlns="http://www.w3.org/2000/svg">
<rect width="11155.4" height="12094" fill="#B0B0B0"/>
<path d="M1058.76 844H10095.9Z" fill="#F2F2F2"/>
<path d="M1058.76 844H10095.9" stroke="black" stroke-width="170.079"/>
<path d="M10079.4 1020H7075.42V12067H10079.4V1020Z" fill="#D5FFFF" stroke="#333333" stroke-width="60.4724"/>
<path d="M7051.38 1055.65L10086.9 1058Z" fill="#D3F2F9"/>
<path d="M7051.38 1055.65L10086.9 1058" stroke="#333333" stroke-width="132.283"/>
<path d="M7051.38 12031.4L10086.3 12024Z" fill="#D3F2F9"/>
<path d="M7051.38 12031.4L10086.3 12024" stroke="#333333" stroke-width="132.283"/>
<path d="M7075.47 1019.75H4079.19V12067.3H7075.47V1019.75Z" fill="#D5FFFF" stroke="#333333" stroke-width="60.4724"/>
<path d="M4055.1 1055.65H7099.57Z" fill="#D3F2F9"/>
<path d="M4055.1 1055.65H7099.57" stroke="#333333" stroke-width="132.283"/>
<path d="M4055.1 12031.4H7099.57Z" fill="#D3F2F9"/>
<path d="M4055.1 12031.4H7099.57" stroke="#333333" stroke-width="132.283"/>
<path d="M4079.43 1020H1076.56V12067H4079.43V1020Z" fill="#D5FFFF" stroke="#333333" stroke-width="60.4724"/>
<path d="M1058.82 1055.65H4103.29Z" fill="#D3F2F9"/>
<path d="M1058.82 1055.65H4103.29" stroke="#333333" stroke-width="132.283"/>
<path d="M1071.96 12026L4103.3 12031.4Z" fill="#D3F2F9"/>
<path d="M1071.96 12026L4103.3 12031.4" stroke="#333333" stroke-width="132.283"/>
<rect x="1058.76" y="929" width="9037.33" height="61" fill="white"/>
<path d="M10079.5 7957.79H10020.9Z" fill="#D3F2F9"/>
<path d="M10079.5 7957.79H10020.9" stroke="#333333" stroke-width="41.5748"/>
<path d="M10079.5 8672.12H10020.9Z" fill="#D3F2F9"/>
<path d="M10079.5 8672.12H10020.9" stroke="#333333" stroke-width="41.5748"/>
<path d="M10032.8 7937V8692.91Z" fill="#D3F2F9"/>
<path d="M10032.8 7937V8692.91" stroke="#333333" stroke-width="41.5748"/>
<path d="M1076.56 7957.79H1135.15Z" fill="#D3F2F9"/>
<path d="M1076.56 7957.79H1135.15" stroke="#333333" stroke-width="41.5748"/>
<path d="M1076.56 8672.12H1135.15Z" fill="#D3F2F9"/>
<path d="M1076.56 8672.12H1135.15" stroke="#333333" stroke-width="41.5748"/>
<path d="M1123.21 7937V8692.91Z" fill="#D3F2F9"/>
<path d="M1123.21 7937V8692.91" stroke="#333333" stroke-width="41.5748"/>
</svg>
