<svg width="12851" height="12095" viewBox="0 0 12851 12095" fill="none" xmlns="http://www.w3.org/2000/svg">
<path d="M12094.5 755.906H755.906V12094.5H12094.5V755.906Z" fill="#F9F9F9"/>
<path d="M755.906 840.945H12094.5H755.906Z" fill="#F2F2F2"/>
<path d="M755.906 840.945H12094.5" stroke="black" stroke-width="170.079"/>
<path d="M12064.3 1016.69H8304.91V12064.3H12064.3V1016.69Z" fill="#D5FFFF" stroke="#333333" stroke-width="60.4724"/>
<path d="M8274.67 1052.6H12094.5H8274.67Z" fill="#D3F2F9"/>
<path d="M8274.67 1052.6H12094.5" stroke="#333333" stroke-width="132.283"/>
<path d="M8274.67 12028.3H12094.5H8274.67Z" fill="#D3F2F9"/>
<path d="M8274.67 12028.3H12094.5" stroke="#333333" stroke-width="132.283"/>
<path d="M8304.91 1016.69H4545.56V12064.3H8304.91V1016.69Z" fill="#D5FFFF" stroke="#333333" stroke-width="60.4724"/>
<path d="M4515.32 1052.6H8335.14H4515.32Z" fill="#D3F2F9"/>
<path d="M4515.32 1052.6H8335.14" stroke="#333333" stroke-width="132.283"/>
<path d="M4515.32 12028.3H8335.14H4515.32Z" fill="#D3F2F9"/>
<path d="M4515.32 12028.3H8335.14" stroke="#333333" stroke-width="132.283"/>
<path d="M4545.56 1016.69H786.211V12064.3H4545.56V1016.69Z" fill="#D5FFFF" stroke="#333333" stroke-width="60.4724"/>
<path d="M755.977 1052.6H4575.79H755.977Z" fill="#D3F2F9"/>
<path d="M755.977 1052.6H4575.79" stroke="#333333" stroke-width="132.283"/>
<path d="M755.977 12028.3H4575.79H755.977Z" fill="#D3F2F9"/>
<path d="M755.977 12028.3H4575.79" stroke="#333333" stroke-width="132.283"/>
<path d="M816.355 7957.8H918.403H816.355Z" fill="#D3F2F9"/>
<path d="M816.355 7957.8H918.403" stroke="#333333" stroke-width="41.5748"/>
<path d="M816.355 8672.13H918.403H816.355Z" fill="#D3F2F9"/>
<path d="M816.355 8672.13H918.403" stroke="#333333" stroke-width="41.5748"/>
<path d="M897.617 7937.01V8692.91V7937.01Z" fill="#D3F2F9"/>
<path d="M897.617 7937.01V8692.91" stroke="#333333" stroke-width="41.5748"/>
<path d="M12036 7957.8H11933.9Z" fill="#D3F2F9"/>
<path d="M12036 7957.8H11933.9" stroke="#333333" stroke-width="41.5748"/>
<path d="M12036 8672.13H11933.9Z" fill="#D3F2F9"/>
<path d="M12036 8672.13H11933.9" stroke="#333333" stroke-width="41.5748"/>
<path d="M11954.7 7937.01V8692.91Z" fill="#D3F2F9"/>
<path d="M11954.7 7937.01V8692.91" stroke="#333333" stroke-width="41.5748"/>
<path d="M377.953 12094.5V0V12094.5Z" fill="#E6E6E6"/>
<path d="M377.953 12094.5V0" stroke="#B0B0B0" stroke-width="755.906"/>
<path d="M12472.4 12094.5V0V12094.5Z" fill="#E6E6E6"/>
<path d="M12472.4 12094.5V0" stroke="#B0B0B0" stroke-width="755.906"/>
<path d="M12850.4 377.953H0H12850.4Z" fill="#E6E6E6"/>
<path d="M12850.4 377.953H0" stroke="#B0B0B0" stroke-width="755.906"/>
</svg>
