<svg width="19429" height="12098" viewBox="0 0 19429 12098" fill="none" xmlns="http://www.w3.org/2000/svg">
<rect width="19429" height="12094" fill="#B0B0B0"/>
<path d="M1844 844H17583.6Z" fill="#F2F2F2"/>
<path d="M1844 844H17583.6" stroke="black" stroke-width="170.079"/>
<path d="M17555 1020H12323V12067H17555V1020Z" fill="#D5FFFF" stroke="#333333" stroke-width="60.4724"/>
<path d="M12281.1 1055.65L17568 1058Z" fill="#D3F2F9"/>
<path d="M12281.1 1055.65L17568 1058" stroke="#333333" stroke-width="132.283"/>
<path d="M12281.1 12031.4L17567 12024Z" fill="#D3F2F9"/>
<path d="M12281.1 12031.4L17567 12024" stroke="#333333" stroke-width="132.283"/>
<path d="M12323.1 1019.75H7104.59V12067.3H12323.1V1019.75Z" fill="#D5FFFF" stroke="#333333" stroke-width="60.4724"/>
<path d="M7062.61 1055.65H12365.1Z" fill="#D3F2F9"/>
<path d="M7062.61 1055.65H12365.1" stroke="#333333" stroke-width="132.283"/>
<path d="M7062.61 12031.4H12365.1Z" fill="#D3F2F9"/>
<path d="M7062.61 12031.4H12365.1" stroke="#333333" stroke-width="132.283"/>
<path d="M7105 1020H1875V12067H7105V1020Z" fill="#D5FFFF" stroke="#333333" stroke-width="60.4724"/>
<path d="M1844.1 1055.65H7146.56Z" fill="#D3F2F9"/>
<path d="M1844.1 1055.65H7146.56" stroke="#333333" stroke-width="132.283"/>
<path d="M1867 12026L7146.56 12031.4Z" fill="#D3F2F9"/>
<path d="M1867 12026L7146.56 12031.4" stroke="#333333" stroke-width="132.283"/>
<rect x="1844" y="929" width="15740" height="61" fill="white"/>
<path d="M17555 7957.79H17453H17555Z" fill="#D3F2F9"/>
<path d="M17555 7957.79H17453" stroke="#333333" stroke-width="41.5748"/>
<path d="M17555 8672.12H17453H17555Z" fill="#D3F2F9"/>
<path d="M17555 8672.12H17453" stroke="#333333" stroke-width="41.5748"/>
<path d="M17473.8 7937V8692.91V7937Z" fill="#D3F2F9"/>
<path d="M17473.8 7937V8692.91" stroke="#333333" stroke-width="41.5748"/>
<path d="M1875 7957.79H1977.05Z" fill="#D3F2F9"/>
<path d="M1875 7957.79H1977.05" stroke="#333333" stroke-width="41.5748"/>
<path d="M1875 8672.12H1977.05Z" fill="#D3F2F9"/>
<path d="M1875 8672.12H1977.05" stroke="#333333" stroke-width="41.5748"/>
<path d="M1956.26 7937V8692.91Z" fill="#D3F2F9"/>
<path d="M1956.26 7937V8692.91" stroke="#333333" stroke-width="41.5748"/>
</svg>
